# xmcd CD database file
#
# Track frame offsets:
#	151
#	16152
#	39710
#	73050
#	108299
#
# Disc length: 1961 seconds
#
# Revision: 2
# Processed by: cddbd v1.4b41PL1 Copyright (c) Steve Scherf et al.
# Submitted via: Feurio! 1.50.2ß - http://www.feurio.com
#
DISCID=3a07a705
DTITLE=Various Artist - Êvery time you need me
DYEAR=1900
DGENRE=
TTITLE0=Fragma - 1Êvery time you need me radio edit
TTITLE1=Fragma - 2Êvery time you need me extended version
TTITLE2=Fragma - 3Êvery time you need me pulsedriver mix
TTITLE3=Fragma - 4Êvery time you need me jam x and de leon`s dumonde rmx
TTITLE4=Fragma - 5Êvery time you need me above and beyond rmx
EXTD=
EXTT0=
EXTT1=
EXTT2=
EXTT3=
EXTT4=
PLAYORDER=
